<svg version="1.2" xmlns="http://www.w3.org/2000/svg" viewBox="0 0 1561 216" width="1561" height="216">
	<title>Lumen-logo-R-svg</title>
	<defs>
		<clipPath clipPathUnits="userSpaceOnUse" id="cp1">
			<path d="m0 1h1482.8v214.4h-1482.8z"/>
		</clipPath>
	</defs>
	<style>
		.s0 { fill: #0c9ed9 } 
		.s1 { fill: #000000 } 
	</style>
	<g id="Lumen-logo">
		<g id="Group_4657">
			<g id="Clip-Path: Group_4656" clip-path="url(#cp1)">
				<g id="Group_4656">
					<path id="Path_1130" class="s0" d="m1140.9 35l-188.2 0.3v-15.5c0-10.3 6.3-16.1 18.3-16.1h169.4c12 0 18.3 5.8 18.3 16.1 0 9.8-6.2 15.2-17.8 15.2z"/>
					<path id="Path_1131" class="s1" d="m1098 92.3c12.1 0 18.3 5.9 18.3 15.7 0 10.3-6.2 15.6-18.3 15.6h-111.4v47.1c0 5.4 2.2 8.1 8 8.1h147.6c11.6 0 17.8 5.3 17.8 15.6 0 10.7-6.2 15.6-17.8 15.6h-171.2c-12.1 0-18.3-4.9-18.3-15.6v-102.5z"/>
				</g>
			</g>
		</g>
		<g id="Group_4660">
			<g id="Group_4659">
				<g id="Group_4658">
					<path id="Path_1127" fill-rule="evenodd" class="s1" d="m1.4 10.4c0.9-2 2.1-3.8 3.7-5.2 1.6-1.5 3.5-2.6 5.5-3.3 2-0.8 4.2-1 6.3-0.9 2.2-0.2 4.4 0.1 6.4 0.8 2.1 0.7 4 1.8 5.6 3.3 1.5 1.4 2.8 3.2 3.7 5.2 0.8 2 1.3 4.2 1.3 6.3v154.1c0 5.4 2.2 8.1 8 8.1h144c11.6 0 18.3 5.3 18.3 15.6 0 10.7-6.7 15.6-18.3 15.6h-167.6c-12.1 0-18.3-4.9-18.3-15.6v-177.8c0-2.1 0.5-4.3 1.4-6.2zm374.4 172.4c56.7 0 87.9 7.8 87.9-50.7v-115.5c0.3-4.2 2.2-8.2 5.4-11.1 3.1-2.9 7.2-4.5 11.5-4.5 4.3 0 8.4 1.6 11.5 4.5 3.2 2.9 5.1 6.9 5.4 11.1v118.6c0 72-44.5 80.2-121.7 80.2-77.1 0-121.7-8.2-121.7-80.2v-118.6c0.4-4.2 2.3-8.2 5.4-11.1 3.2-2.9 7.3-4.5 11.6-4.5 4.2 0 8.4 1.6 11.5 4.5 3.1 2.9 5.1 6.9 5.4 11.1v115.5c0 57.7 31.2 50.7 87.8 50.7zm450.7-129.5l-82 77.9c-8.3 7.1-12.1 13-19.6 13-6 0-11.8-5.7-19.2-13l-82.5-78.4h-1.8v144.3c0.1 2.2-0.3 4.4-1.2 6.4-0.9 2-2.1 3.8-3.7 5.3-1.6 1.4-3.5 2.6-5.6 3.2-2.1 0.7-4.3 1-6.4 0.7-2.2 0.2-4.4 0-6.4-0.7-2-0.7-3.9-1.9-5.5-3.3-1.6-1.5-2.9-3.3-3.8-5.3-0.8-2-1.3-4.1-1.3-6.3v-172.9c0.1-2.9 0.7-5.8 1.9-8.5 1.1-2.7 2.7-5.1 4.7-7.2 2-2.2 4.3-3.9 6.9-5.2 2.7-1.3 5.5-2 8.4-2.3 9.9 0 18.3 6 29.4 17.4l86.5 85.1h0.5l86.4-85.5c11.3-10.4 16.4-17 28.1-17 3 0.1 5.9 0.7 8.6 1.9 2.6 1.2 5.1 3 7.1 5.2 2 2.1 3.5 4.7 4.5 7.4 1 2.8 1.4 5.8 1.3 8.7v172.9c0 2.2-0.4 4.4-1.3 6.4-0.8 2-2.1 3.8-3.7 5.3-1.6 1.4-3.5 2.6-5.5 3.2-2.1 0.7-4.3 1-6.5 0.7-2.1 0.2-4.3 0-6.4-0.7-2-0.7-3.9-1.9-5.5-3.3-1.6-1.5-2.8-3.3-3.7-5.3-0.9-2-1.3-4.1-1.3-6.3v-143.8zm654.7 147.1c-1 2.5-2.5 4.8-4.4 6.7-1.9 1.8-4.2 3.3-6.7 4.3-2.5 1-5.2 1.4-7.8 1.3-11.5 0-19.2-8.8-30.4-18.3l-165.8-142.9v145.6c0 2.2-0.4 4.3-1.3 6.3-0.9 2-2.1 3.8-3.7 5.3-1.6 1.4-3.5 2.6-5.6 3.3-2 0.7-4.2 0.9-6.3 0.7-2.2 0.2-4.4-0.1-6.4-0.8-2-0.7-3.9-1.9-5.5-3.3-1.6-1.5-2.8-3.3-3.7-5.2-0.9-2-1.4-4.1-1.4-6.3v-172.9c0-15.2 8-23.2 20.1-23.2 11 0 17.4 7.3 29 17l167.6 141.1v-142.5c0-2.1 0.4-4.3 1.3-6.3 0.9-2 2.1-3.8 3.7-5.2 1.6-1.5 3.5-2.6 5.6-3.3 2-0.7 4.2-1 6.3-0.8 2.2-0.1 4.4 0.1 6.4 0.9 2 0.7 3.9 1.8 5.5 3.3 1.6 1.4 2.8 3.2 3.7 5.2 0.9 1.9 1.4 4.1 1.4 6.2v176c0 2.7-0.5 5.4-1.6 7.8zm25.2-170.9v-0.2c-0.1-7.2 2.6-14.1 7.6-19.3 5-5.2 11.9-8.1 19.1-8.1 7.2 0 14.1 2.9 19.2 8 5 5.1 7.8 12.1 7.7 19.3v0.1c0.1 7.2-2.6 14.2-7.6 19.4-5 5.1-11.9 8.1-19.1 8.1-7.2 0-14.1-2.9-19.2-8-5-5.1-7.8-12.1-7.7-19.3zm50.5-0.2v-0.1c0.1-6.4-2.4-12.6-6.8-17.1-4.5-4.6-10.6-7.1-17-7.1-6.4 0-12.4 2.6-16.9 7.2-4.4 4.6-6.9 10.8-6.7 17.1v0.2c-0.1 6.4 2.3 12.5 6.8 17.1 4.5 4.5 10.6 7.1 17 7.1 6.3-0.1 12.4-2.6 16.9-7.2 4.4-4.6 6.9-10.8 6.7-17.2zm-34.2-14.1h12.3c6 0 10.5 2.9 10.5 8.6q0.1 1.4-0.4 2.8-0.4 1.4-1.3 2.5-0.8 1.1-2 1.9-1.2 0.8-2.6 1.1l7.2 10.4h-6.3l-6.4-9.5h-5.8v9.5h-5.2zm11.8 13.5c3.6 0 5.6-1.8 5.6-4.4 0-3-2-4.5-5.6-4.5h-6.6v8.9z"/>
				</g>
			</g>
		</g>
	</g>
</svg>