<?xml version="1.0" encoding="UTF-8" standalone="no"?>
<!-- Created with Inkscape (http://www.inkscape.org/) -->

<svg
   width="210mm"
   height="14mm"
   viewBox="0 0 210 14"
   version="1.1"
   id="svg1"
   inkscape:version="1.4 (86a8ad7, 2024-10-11)"
   sodipodi:docname="Workflowbannersmall.svg"
   xmlns:inkscape="http://www.inkscape.org/namespaces/inkscape"
   xmlns:sodipodi="http://sodipodi.sourceforge.net/DTD/sodipodi-0.dtd"
   xmlns="http://www.w3.org/2000/svg"
   xmlns:svg="http://www.w3.org/2000/svg">
  <sodipodi:namedview
     id="namedview1"
     pagecolor="#ffffff"
     bordercolor="#000000"
     borderopacity="0.25"
     inkscape:showpageshadow="2"
     inkscape:pageopacity="0.0"
     inkscape:pagecheckerboard="0"
     inkscape:deskcolor="#d1d1d1"
     inkscape:document-units="mm"
     inkscape:zoom="1.0396254"
     inkscape:cx="396.77752"
     inkscape:cy="561.25984"
     inkscape:window-width="3440"
     inkscape:window-height="1369"
     inkscape:window-x="2552"
     inkscape:window-y="-8"
     inkscape:window-maximized="1"
     inkscape:current-layer="layer1" />
  <defs
     id="defs1" />
  <g
     inkscape:label="Layer 1"
     inkscape:groupmode="layer"
     id="layer1">
    <g
       id="g1"
       transform="translate(-4.3264781,-98.491003)">
      <path
         id="Path_1130-4"
         class="s0"
         d="m 194.22224,103.2554 -7.91952,0.0133 v -0.68874 c 0,-0.45768 0.26511,-0.71541 0.77007,-0.71541 h 7.12841 c 0.50495,0 0.77006,0.25773 0.77006,0.71541 0,0.43546 -0.26089,0.67541 -0.74902,0.67541 z"
         style="opacity:0.874225;fill:#0c9ed9;fill-opacity:1;stroke-width:0.0432418" />
      <path
         id="Path_1131-8"
         class="s1"
         d="m 192.53201,105.14692 c 0.50917,0 0.77006,0.22549 0.77006,0.60005 0,0.39366 -0.26089,0.59623 -0.77006,0.59623 h -4.68774 v 1.80014 c 0,0.2064 0.0926,0.30958 0.33663,0.30958 h 6.21106 c 0.48813,0 0.74904,0.20257 0.74904,0.59623 0,0.40896 -0.26091,0.59623 -0.74904,0.59623 h -7.20416 c -0.50917,0 -0.77005,-0.18727 -0.77005,-0.59623 v -3.91752 z"
         style="opacity:0.874225;fill:#000000;fill-opacity:0.937255;stroke-width:0.0401036" />
      <path
         style="font-weight:300;font-size:70.3712px;font-family:QuadrillionW05-Light;-inkscape-font-specification:'QuadrillionW05-Light Light';text-align:center;letter-spacing:9.66px;word-spacing:0.03px;text-anchor:middle;opacity:0.935;fill:#000000;stroke-width:0.181942"
         d="m 10.370022,102.24545 2.778465,5.5173 3.027653,-5.5173 c 0.09137,-0.16686 0.191045,-0.27205 0.299027,-0.31558 0.107981,-0.0435 0.232577,-0.0653 0.373783,-0.0653 0.132903,0 0.253343,0.0218 0.361326,0.0653 0.11629,0.0435 0.220117,0.14872 0.311488,0.31558 l 3.027652,5.5173 2.778465,-5.5173 c 0.124594,-0.25392 0.340559,-0.38087 0.647892,-0.38087 0.232576,0 0.415314,0.0544 0.548217,0.16323 0.132901,0.10157 0.199351,0.23578 0.199351,0.40264 0,0.0871 -0.03738,0.20314 -0.112134,0.34823 l -3.33914,6.47494 c -0.04984,0.10157 -0.124596,0.19225 -0.224271,0.27206 -0.09137,0.0726 -0.253344,0.10882 -0.48592,0.10882 -0.141208,0 -0.278261,-0.0218 -0.411163,-0.0653 -0.124595,-0.0435 -0.228425,-0.14873 -0.311488,-0.31559 l -2.990275,-5.50641 -2.990272,5.50641 c -0.05815,0.10157 -0.137056,0.19225 -0.236733,0.27206 -0.09137,0.0726 -0.253342,0.10882 -0.485918,0.10882 -0.141206,0 -0.274109,-0.0218 -0.398703,-0.0653 -0.124595,-0.0435 -0.232577,-0.14873 -0.323945,-0.31559 l -3.339144,-6.47494 c -0.066449,-0.12333 -0.099673,-0.2394 -0.099673,-0.34823 0,-0.16686 0.062299,-0.30107 0.1868909,-0.40264 0.1329019,-0.10882 0.31564,-0.16323 0.5482179,-0.16323 0.3156382,0 0.5357582,0.12695 0.6603512,0.38087 z m 22.293413,0.91411 h -1.931221 c -1.0549,0 -1.856462,0.22127 -2.404679,0.66382 -0.539911,0.44255 -0.809866,1.0846 -0.809866,1.92616 0,0.84156 0.269955,1.48361 0.809866,1.92615 0.548217,0.44255 1.349779,0.66382 2.404679,0.66382 h 1.931221 c 1.046596,0 1.839849,-0.22127 2.37976,-0.66382 0.548217,-0.44254 0.822326,-1.08459 0.822326,-1.92615 0,-0.84156 -0.274109,-1.48361 -0.822326,-1.92616 -0.539911,-0.44255 -1.333164,-0.66382 -2.37976,-0.66382 z m -1.981058,-1.21881 h 2.030896 c 1.478523,0 2.612337,0.32647 3.401437,0.9794 0.789102,0.65293 1.183652,1.59606 1.183652,2.82939 0,1.23332 -0.39455,2.17645 -1.183652,2.82938 -0.7891,0.65293 -1.922914,0.9794 -3.401437,0.9794 h -2.030896 c -1.478523,0 -2.612335,-0.32647 -3.401436,-0.9794 -0.789101,-0.65293 -1.183651,-1.59606 -1.183651,-2.82938 0,-1.23333 0.39455,-2.17646 1.183651,-2.82939 0.789101,-0.65293 1.922913,-0.9794 3.401436,-0.9794 z m 9.784076,0 h 6.005469 c 0.980146,0 1.727714,0.21764 2.242705,0.65293 0.523297,0.42804 0.784948,1.04833 0.784948,1.86087 0,0.5296 -0.116288,0.98666 -0.348866,1.37116 -0.232576,0.37725 -0.56483,0.6602 -0.996758,0.84882 l 1.457759,2.04586 c 0.07476,0.13059 0.112136,0.23941 0.112136,0.32647 0,0.1451 -0.07891,0.28293 -0.236731,0.41352 -0.149515,0.12333 -0.323948,0.185 -0.523297,0.185 -0.249191,0 -0.440236,-0.10157 -0.573138,-0.30471 l -1.669569,-2.37232 h -5.419872 v 2.10027 c 0,0.37725 -0.236731,0.56588 -0.710191,0.56588 -0.473461,0 -0.710191,-0.18863 -0.710191,-0.56588 v -2.70968 c 0,-0.40627 0.211811,-0.6094 0.635433,-0.6094 h 5.955632 c 0.523299,0 0.917847,-0.10882 1.183649,-0.32647 0.274109,-0.2249 0.411163,-0.54774 0.411163,-0.96852 0,-0.41353 -0.137054,-0.73274 -0.411163,-0.95764 -0.274109,-0.2249 -0.668659,-0.33735 -1.183649,-0.33735 h -6.005469 c -0.423621,0 -0.635434,-0.20314 -0.635434,-0.6094 0,-0.40627 0.211813,-0.60941 0.635434,-0.60941 z m 12.936325,0.50058 v 2.65527 l 7.263875,-3.10144 c 0.191047,-0.0871 0.348867,-0.13058 0.473462,-0.13058 0.191044,0 0.353017,0.0653 0.485917,0.19588 0.132903,0.12333 0.199353,0.27568 0.199353,0.45705 0,0.23215 -0.128748,0.40627 -0.386243,0.52235 l -6.528767,2.6988 6.653362,2.73144 c 0.124594,0.058 0.220116,0.13421 0.286566,0.22852 0.06645,0.0871 0.09968,0.185 0.09968,0.29382 0,0.17412 -0.06645,0.32647 -0.19935,0.45706 -0.132902,0.12333 -0.294875,0.185 -0.485921,0.185 -0.141206,0 -0.299027,-0.0399 -0.47346,-0.1197 l -7.38847,-3.14497 v 2.69879 c 0,0.37725 -0.240884,0.56588 -0.722651,0.56588 -0.465152,0 -0.69773,-0.18863 -0.69773,-0.56588 v -6.62729 c 0,-0.3845 0.236729,-0.57675 0.71019,-0.57675 0.47346,0 0.710191,0.19225 0.710191,0.57675 z m 11.590712,-0.50058 h 7.475687 c 0.431931,0 0.647891,0.20314 0.647891,0.60941 0,0.40626 -0.21596,0.6094 -0.647891,0.6094 h -6.690738 v 1.95881 h 6.615984 c 0.41531,0 0.622969,0.19588 0.622969,0.58764 0,0.39176 -0.207659,0.58764 -0.622969,0.58764 h -6.615984 v 2.77497 c 0,0.37725 -0.236731,0.56588 -0.71019,0.56588 -0.473462,0 -0.710191,-0.18863 -0.710191,-0.56588 v -6.51846 c 0,-0.40627 0.211811,-0.60941 0.635432,-0.60941 z m 12.001877,0.50058 v 5.89818 h 6.715656 c 0.431931,0 0.647897,0.20314 0.647897,0.60941 0,0.40627 -0.215966,0.6094 -0.647897,0.6094 h -7.500601 c -0.423624,0 -0.635439,-0.20313 -0.635439,-0.6094 v -6.50759 c 0,-0.3845 0.23673,-0.57675 0.710193,-0.57675 0.473461,0 0.710191,0.19225 0.710191,0.57675 z m 15.328554,0.71823 H 90.3927 c -1.054905,0 -1.85646,0.22127 -2.404681,0.66382 -0.539908,0.44255 -0.809862,1.0846 -0.809862,1.92616 0,0.84156 0.269954,1.48361 0.809862,1.92615 0.548221,0.44255 1.349776,0.66382 2.404681,0.66382 h 1.931221 c 1.046592,0 1.839852,-0.22127 2.37976,-0.66382 0.548214,-0.44254 0.822325,-1.08459 0.822325,-1.92615 0,-0.84156 -0.274111,-1.48361 -0.822325,-1.92616 -0.539908,-0.44255 -1.333168,-0.66382 -2.37976,-0.66382 z m -1.981058,-1.21881 h 2.030896 c 1.478524,0 2.612339,0.32647 3.401436,0.9794 0.789102,0.65293 1.183654,1.59606 1.183654,2.82939 0,1.23332 -0.394552,2.17645 -1.183654,2.82938 -0.789097,0.65293 -1.922912,0.9794 -3.401436,0.9794 h -2.030896 c -1.478524,0 -2.612341,-0.32647 -3.401436,-0.9794 -0.789103,-0.65293 -1.183648,-1.59606 -1.183648,-2.82938 0,-1.23333 0.394545,-2.17646 1.183648,-2.82939 0.789095,-0.65293 1.922912,-0.9794 3.401436,-0.9794 z m 9.385376,0.3047 2.778461,5.5173 3.02766,-5.5173 c 0.0914,-0.16686 0.19104,-0.27205 0.29902,-0.31558 0.10798,-0.0435 0.23258,-0.0653 0.37379,-0.0653 0.1329,0 0.25334,0.0218 0.36133,0.0653 0.11627,0.0435 0.22011,0.14872 0.31148,0.31558 l 3.02765,5.5173 2.77847,-5.5173 c 0.12459,-0.25392 0.34055,-0.38087 0.64789,-0.38087 0.23257,0 0.41531,0.0544 0.54821,0.16323 0.13291,0.10157 0.19936,0.23578 0.19936,0.40264 0,0.0871 -0.0374,0.20314 -0.11214,0.34823 l -3.33914,6.47494 c -0.0499,0.10157 -0.12459,0.19225 -0.22426,0.27206 -0.0914,0.0726 -0.25335,0.10882 -0.48593,0.10882 -0.14121,0 -0.27826,-0.0218 -0.41116,-0.0653 -0.12459,-0.0435 -0.22842,-0.14873 -0.31149,-0.31559 l -2.99027,-5.50641 -2.99028,5.50641 c -0.0581,0.10157 -0.13706,0.19225 -0.23673,0.27206 -0.0914,0.0726 -0.25334,0.10882 -0.48592,0.10882 -0.14121,0 -0.2741,-0.0218 -0.3987,-0.0653 -0.12459,-0.0435 -0.23258,-0.14873 -0.32395,-0.31559 l -3.33914,-6.47494 c -0.06645,-0.12333 -0.09968,-0.2394 -0.09968,-0.34823 0,-0.16686 0.0623,-0.30107 0.186894,-0.40264 0.132906,-0.10882 0.315637,-0.16323 0.548218,-0.16323 0.315637,0 0.535761,0.12695 0.660353,0.38087 z m 23.348731,-0.13058 3.8749,2.98173 3.86244,-2.98173 c 0.21595,-0.16686 0.46099,-0.25029 0.7351,-0.25029 0.49839,0 0.74757,0.19225 0.74757,0.57675 v 6.62729 c 0,0.37725 -0.23673,0.56588 -0.71019,0.56588 -0.23259,0 -0.41118,-0.0472 -0.53576,-0.14147 -0.1246,-0.10157 -0.18688,-0.24303 -0.18688,-0.42441 v -5.35406 l -3.40146,2.61173 c -0.0747,0.0508 -0.16197,0.0943 -0.26165,0.13059 -0.0914,0.0362 -0.17443,0.0544 -0.24917,0.0544 -0.18276,0 -0.35303,-0.0617 -0.51086,-0.185 l -3.41388,-2.61174 v 5.35406 c 0,0.37726 -0.24089,0.56588 -0.72267,0.56588 -0.46513,0 -0.69772,-0.18862 -0.69772,-0.56588 v -6.62729 c 0,-0.3845 0.24505,-0.57675 0.73512,-0.57675 0.29071,0 0.53576,0.0834 0.73511,0.25029 z m 17.95748,0.0218 4.97134,6.47494 c 0.0914,0.10882 0.13706,0.23578 0.13706,0.38088 0,0.17412 -0.0706,0.31196 -0.21181,0.41352 -0.14122,0.10158 -0.31982,0.15236 -0.53577,0.15236 h -6.35433 c -0.42361,0 -0.63542,-0.20314 -0.63542,-0.60941 0,-0.40627 0.21181,-0.60941 0.63542,-0.60941 h 5.07101 l -3.73785,-4.87524 -4.51033,5.89818 c -0.1329,0.18137 -0.31979,0.27205 -0.56069,0.27205 -0.20765,0 -0.38623,-0.0544 -0.53574,-0.16323 -0.14119,-0.11608 -0.2118,-0.25755 -0.2118,-0.42441 0,-0.13058 0.0457,-0.25029 0.13703,-0.35911 l 5.02117,-6.55112 c 0.13292,-0.18136 0.35303,-0.27205 0.66036,-0.27205 0.29904,0 0.51915,0.0907 0.66035,0.27205 z m 8.98666,-0.0109 6.90257,5.53907 v -5.22348 c 0,-0.38451 0.24088,-0.57676 0.72264,-0.57676 0.47346,0 0.7102,0.19225 0.7102,0.57676 v 6.62728 c 0,0.37726 -0.23674,0.56588 -0.7102,0.56588 -0.27409,0 -0.49007,-0.0653 -0.64789,-0.19588 l -7.12682,-5.7023 v 5.3323 c 0,0.37726 -0.24088,0.56588 -0.72265,0.56588 -0.46516,0 -0.69771,-0.18862 -0.69771,-0.56588 v -6.62728 c 0,-0.38451 0.25746,-0.57676 0.77247,-0.57676 0.32397,0 0.58974,0.0871 0.79739,0.26117 z m 17.07288,0.0109 4.97134,6.47494 c 0.0914,0.10882 0.13704,0.23578 0.13704,0.38088 0,0.17412 -0.0706,0.31196 -0.21179,0.41352 -0.1412,0.10158 -0.3198,0.15236 -0.53577,0.15236 h -6.35434 c -0.42361,0 -0.63542,-0.20314 -0.63542,-0.60941 0,-0.40627 0.21181,-0.60941 0.63542,-0.60941 h 5.07102 l -3.73786,-4.87524 -4.5103,5.89818 c -0.13293,0.18137 -0.3198,0.27205 -0.56069,0.27205 -0.20765,0 -0.38625,-0.0544 -0.53576,-0.16323 -0.1412,-0.11608 -0.21181,-0.25755 -0.21181,-0.42441 0,-0.13058 0.0457,-0.25029 0.13705,-0.35911 l 5.02117,-6.55112 c 0.13291,-0.18136 0.35302,-0.27205 0.66034,-0.27205 0.29904,0 0.51916,0.0907 0.66036,0.27205 z m 11.0051,-0.19587 h 4.80936 c 0.43194,0 0.6479,0.20313 0.6479,0.6094 0,0.40627 -0.21596,0.60941 -0.6479,0.60941 h -4.7595 c -1.05492,0 -1.85648,0.22127 -2.40468,0.66381 -0.53993,0.44255 -0.80988,1.0846 -0.80988,1.92616 0,0.84882 0.26995,1.49449 0.80988,1.93704 0.5482,0.43529 1.34976,0.65293 2.40468,0.65293 h 4.03687 v -2.0241 h -4.07426 c -0.41531,0 -0.62297,-0.19587 -0.62297,-0.58763 0,-0.39177 0.20766,-0.58764 0.62297,-0.58764 h 4.85921 c 0.41532,0 0.62296,0.19587 0.62296,0.58764 v 3.23202 c 0,0.18137 -0.0623,0.32647 -0.18687,0.43529 -0.11629,0.10882 -0.27827,0.16324 -0.48595,0.16324 h -4.82182 c -1.48683,0 -2.62478,-0.32285 -3.41389,-0.96852 -0.78079,-0.65294 -1.17119,-1.5997 -1.17119,-2.84027 0,-1.24057 0.3904,-2.18371 1.17119,-2.82938 0.78911,-0.65294 1.92706,-0.9794 3.41389,-0.9794 z m 20.35312,0 h 6.00548 c 0.98015,0 1.7277,0.21764 2.24268,0.65293 0.52332,0.42803 0.78497,1.04832 0.78497,1.86086 0,0.5296 -0.1163,0.98666 -0.34887,1.37117 -0.23257,0.37725 -0.56485,0.66018 -0.99676,0.84881 l 1.45776,2.04586 c 0.0748,0.13059 0.11214,0.23941 0.11214,0.32647 0,0.1451 -0.0789,0.28294 -0.23674,0.41353 -0.14951,0.12333 -0.32394,0.18499 -0.52328,0.18499 -0.24922,0 -0.44025,-0.10156 -0.57315,-0.3047 l -1.66957,-2.37233 H 199.287 v 2.10027 c 0,0.37726 -0.23673,0.56588 -0.7102,0.56588 -0.47345,0 -0.71019,-0.18862 -0.71019,-0.56588 v -2.70967 c 0,-0.40628 0.21181,-0.60941 0.63545,-0.60941 h 5.95563 c 0.52329,0 0.91783,-0.10882 1.18365,-0.32647 0.27409,-0.2249 0.41116,-0.54774 0.41116,-0.96852 0,-0.41352 -0.13707,-0.73274 -0.41116,-0.95763 -0.27411,-0.2249 -0.66867,-0.33735 -1.18365,-0.33735 h -6.00548 c -0.42361,0 -0.63542,-0.20314 -0.63542,-0.60941 0,-0.40627 0.21181,-0.6094 0.63542,-0.6094 z"
         id="text2"
         aria-label="WORKFLOW MANAGER"
         sodipodi:nodetypes="cccssccccscscccscccccssccscscsscscsscscsssssssssssssscscccscscccsssssscsssssssccscsccccscsccssssssssssccssscsssssscsssssssssscscsscscsssssssssssscccssccccscscccscccccssccscsccccsssscscccsccssssscccsssssscccscsccscccsssssccssssscccsssssscccscsccscssssscscsccsssssscsscscssscscccscscccsssssscssssss" />
    </g>
  </g>
</svg>
