<?xml version="1.0" encoding="UTF-8" standalone="no"?>
<!-- Created with Inkscape (http://www.inkscape.org/) -->

<svg
   width="1331"
   height="291.89001"
   viewBox="0 0 352.16062 77.229715"
   version="1.1"
   id="svg1"
   inkscape:version="1.4 (86a8ad7, 2024-10-11)"
   sodipodi:docname="Workflow manager - login screen - Mid Banner2.svg"
   inkscape:export-filename="MidBanner2.png"
   inkscape:export-xdpi="96"
   inkscape:export-ydpi="96"
   xmlns:inkscape="http://www.inkscape.org/namespaces/inkscape"
   xmlns:sodipodi="http://sodipodi.sourceforge.net/DTD/sodipodi-0.dtd"
   xmlns="http://www.w3.org/2000/svg"
   xmlns:svg="http://www.w3.org/2000/svg">
  <sodipodi:namedview
     id="namedview1"
     pagecolor="#ffffff"
     bordercolor="#000000"
     borderopacity="0.25"
     inkscape:showpageshadow="2"
     inkscape:pageopacity="0.0"
     inkscape:pagecheckerboard="0"
     inkscape:deskcolor="#d1d1d1"
     inkscape:document-units="mm"
     inkscape:zoom="1.0396254"
     inkscape:cx="396.77752"
     inkscape:cy="253.45667"
     inkscape:window-width="3440"
     inkscape:window-height="1369"
     inkscape:window-x="2552"
     inkscape:window-y="-8"
     inkscape:window-maximized="1"
     inkscape:current-layer="layer1" />
  <defs
     id="defs1" />
  <g
     inkscape:label="Layer 1"
     inkscape:groupmode="layer"
     id="layer1">
    <text
       xml:space="preserve"
       style="font-style:normal;font-weight:normal;font-size:3.175px;line-height:0%;font-family:sans-serif;letter-spacing:0px;word-spacing:0px;opacity:0.823735;fill:#333333;fill-opacity:1;stroke:none;stroke-width:0.264583px;stroke-linecap:butt;stroke-linejoin:miter;stroke-opacity:1"
       x="349.01819"
       y="1.9658843"
       id="text3336-4-5-4-7-0-9-7"
       inkscape:export-filename="Workflow manager - login screen - Top Banner.svg"
       inkscape:export-xdpi="90"
       inkscape:export-ydpi="90"><tspan
         sodipodi:role="line"
         id="tspan3338-2-9-5-2-7-2-7"
         x="349.01819"
         y="1.9658843"
         style="font-style:normal;font-variant:normal;font-weight:bold;font-stretch:normal;font-size:7.27604px;line-height:125%;font-family:'Segoe UI';-inkscape-font-specification:'Segoe UI, Bold';text-align:start;writing-mode:lr-tb;text-anchor:start;fill:#333333;stroke-width:0.264583px"> </tspan></text>
    <text
       xml:space="preserve"
       style="font-style:normal;font-weight:normal;font-size:3.175px;line-height:0%;font-family:sans-serif;letter-spacing:0px;word-spacing:0px;opacity:0.935;fill:#000000;fill-opacity:1;stroke:none;stroke-width:0.264583px;stroke-linecap:butt;stroke-linejoin:miter;stroke-opacity:1"
       x="368.16116"
       y="-1.2286834e-07"
       id="text31237"><tspan
         sodipodi:role="line"
         id="tspan31239"
         x="368.16116"
         y="-1.2286834e-07"
         style="font-size:10.5833px;line-height:1.25;stroke-width:0.264583px"> </tspan></text>
    <text
       id="text5113"
       y="75.58593"
       x="2.5173113"
       style="font-style:normal;font-variant:normal;font-weight:normal;font-stretch:normal;font-size:3.54923px;line-height:0%;font-family:'Eras Medium ITC';-inkscape-font-specification:'Eras Medium ITC, Normal';text-align:start;letter-spacing:0px;word-spacing:0px;writing-mode:lr-tb;text-anchor:start;opacity:0.935;fill:#b3b3b3;fill-opacity:1;stroke:none;stroke-width:0.29577"
       xml:space="preserve"
       transform="scale(1.0097229,0.99037071)"><tspan
         id="tspan5115"
         y="75.58593"
         x="2.5173113"
         sodipodi:role="line"
         style="font-style:normal;font-variant:normal;font-weight:normal;font-stretch:normal;font-size:11.7857px;line-height:125%;font-family:QuadrillionW05-Light;-inkscape-font-specification:QuadrillionW05-Light;text-align:start;writing-mode:lr-tb;text-anchor:start;fill:#b3b3b3;stroke-width:0.29577"><tspan
           id="tspan5117"
           style="font-style:normal;font-variant:normal;font-weight:normal;font-stretch:normal;font-size:11.7857px;line-height:125%;font-family:QuadrillionW05-Light;-inkscape-font-specification:QuadrillionW05-Light;text-align:start;writing-mode:lr-tb;text-anchor:start;fill:#b3b3b3;stroke-width:0.29577"
           dy="0 0 0 0 0 0 0 0 0 0 0 0 0 0 0 0 0 0 0 0 0 0 0 0 0 0 0 0 0 0 0 0 0 0 0 0 0 0 0 0 0 0 0 0 0 0 0 0 0 0 0"
           dx="0 0 0 0 0 0 0 0 0 0 0 0 0 0 0 0 0 0 0 0 0 0 0 0 0 0 0 0 0 0 0 0 0 0 0 0 0 0 0 0 0 0 0 0 0 0 0 0 0 0 0">discover. structure. collaborate. manage. improve.</tspan></tspan></text>
    <g
       id="g4"
       transform="matrix(0.26458333,0,0,0.26458333,-98.299256,-45.407798)"
       style="opacity:0.935">
      <g
         id="g26417-6-5-7"
         style="opacity:0.935;fill:#0c9ed9;fill-opacity:1"
         transform="matrix(0.31688083,0.31688083,-0.31688083,0.31688083,1508.7661,262.77247)">
        <rect
           transform="translate(0,-27.638038)"
           y="-59.39394"
           x="448.48486"
           height="17.171717"
           width="48.484848"
           id="rect26390-0-2-6"
           style="opacity:1;fill:#0c9ed9;fill-opacity:1;stroke:none;stroke-width:0.626;stroke-miterlimit:4;stroke-dasharray:none;stroke-opacity:1" />
        <circle
           transform="translate(0,-27.638038)"
           r="5.1971326"
           cy="-54.229389"
           cx="496.59497"
           id="path26413-4-3-1"
           style="opacity:1;fill:#0c9ed9;fill-opacity:1;stroke:none;stroke-width:0.626;stroke-miterlimit:4;stroke-dasharray:none;stroke-opacity:1" />
        <rect
           ry="0"
           transform="rotate(-90)"
           y="484.78134"
           x="34.068821"
           height="17.171717"
           width="48.484848"
           id="rect26390-6-4-3-8"
           style="opacity:1;fill:#0c9ed9;fill-opacity:1;stroke:none;stroke-width:0.626;stroke-miterlimit:4;stroke-dasharray:none;stroke-opacity:1" />
      </g>
      <path
         style="opacity:0.68;fill:#0c9ed9;fill-opacity:1;stroke-width:1.82276"
         d="M 371.52475,393.15404 H 1687.3663 v 1.9802 h -3.2895"
         id="path2" />
    </g>
    <path
       id="Path_1130-4"
       class="s0"
       d="m 307.16623,17.386611 -13.01282,0.02074 V 16.33563 c 0,-0.712178 0.43561,-1.11321 1.26532,-1.11321 h 11.71292 c 0.82971,0 1.26532,0.401032 1.26532,1.11321 0,0.677606 -0.42868,1.050981 -1.23074,1.050981 z"
       style="opacity:0.874225;fill:#0c9ed9;fill-opacity:1;stroke-width:0.0691436" />
    <path
       id="Path_1131-8"
       class="s1"
       d="m 304.38895,20.329918 c 0.83664,0 1.26532,0.350872 1.26532,0.933701 0,0.612556 -0.42868,0.927764 -1.26532,0.927764 h -7.70257 v 2.801123 c 0,0.321164 0.15211,0.481724 0.55313,0.481724 h 10.20559 c 0.80206,0 1.23076,0.315204 1.23076,0.927759 0,0.636352 -0.4287,0.927767 -1.23076,0.927767 h -11.83738 c -0.83664,0 -1.26531,-0.291415 -1.26531,-0.927767 v -6.095862 z"
       style="opacity:0.874225;fill:#b3b3b3;fill-opacity:0.93725491;stroke-width:0.0641257" />
    <path
       style="font-weight:300;font-size:70.3712px;font-family:QuadrillionW05-Light;-inkscape-font-specification:'QuadrillionW05-Light Light';text-align:center;letter-spacing:9.66px;word-spacing:0.03px;text-anchor:middle;opacity:0.935;fill:#b3b3b3;stroke-width:0.290925"
       d="m 5.0727159,15.815086 4.5653854,8.585202 4.9748337,-8.585202 c 0.15013,-0.259646 0.313912,-0.423333 0.491341,-0.491064 0.177427,-0.06774 0.382154,-0.101603 0.614175,-0.101603 0.218377,0 0.416277,0.03387 0.593707,0.101603 0.191079,0.06773 0.361682,0.231418 0.511815,0.491064 l 4.974833,8.585202 4.565386,-8.585202 c 0.204724,-0.39511 0.559583,-0.592667 1.064572,-0.592667 0.382153,0 0.682416,0.08467 0.900792,0.254 0.218374,0.158044 0.327562,0.366887 0.327562,0.626534 0,0.135466 -0.06142,0.316089 -0.184253,0.541866 l -5.486648,10.075333 c -0.08189,0.158047 -0.204727,0.299157 -0.368507,0.423334 -0.15013,0.112892 -0.416277,0.169336 -0.79843,0.169336 -0.232024,0 -0.457221,-0.03387 -0.675595,-0.1016 -0.204727,-0.06774 -0.375333,-0.231423 -0.511816,-0.49107 l -4.913418,-8.568263 -4.913413,8.568263 c -0.09554,0.158047 -0.2252,0.299157 -0.388982,0.423334 -0.15013,0.112892 -0.4162746,0.169336 -0.7984281,0.169336 -0.2320211,0 -0.4503976,-0.03387 -0.6551216,-0.1016 -0.2047266,-0.06774 -0.3821562,-0.231423 -0.5322861,-0.49107 L 2.9435663,16.644819 c -0.1091856,-0.19191 -0.1637771,-0.372533 -0.1637771,-0.541866 0,-0.259647 0.102362,-0.46849 0.307086,-0.626534 0.2183765,-0.16933 0.5186389,-0.254 0.9007951,-0.254 0.5186362,0 0.8803217,0.197557 1.0850456,0.592667 z m 36.6310251,1.4224 H 38.53049 c -1.733341,0 -3.050413,0.34431 -3.951206,1.032933 -0.887145,0.688623 -1.330716,1.68769 -1.330716,2.997203 0,1.30951 0.443571,2.308577 1.330716,2.9972 0.900793,0.68862 2.217865,1.03293 3.951206,1.03293 h 3.173251 c 1.719696,0 3.023116,-0.34431 3.910261,-1.03293 0.900793,-0.688623 1.35119,-1.68769 1.35119,-2.9972 0,-1.309513 -0.450397,-2.30858 -1.35119,-2.997203 -0.887145,-0.688623 -2.190565,-1.032933 -3.910261,-1.032933 z m -3.25514,-1.896533 h 3.337031 c 2.429409,0 4.292415,0.508 5.589011,1.524 1.296598,1.016 1.944896,2.483556 1.944896,4.402669 0,1.91911 -0.648298,3.386666 -1.944896,4.402666 -1.296596,1.015998 -3.159602,1.524 -5.589011,1.524 h -3.337031 c -2.429409,0 -4.292412,-0.508002 -5.58901,-1.524 -1.296596,-1.016 -1.944894,-2.483556 -1.944894,-4.402666 0,-1.919113 0.648298,-3.386669 1.944894,-4.402669 1.296598,-1.016 3.159601,-1.524 5.58901,-1.524 z m 16.076531,0 h 9.86778 c 1.610509,0 2.838863,0.338666 3.685061,1.016 0.859846,0.666043 1.289773,1.631243 1.289773,2.8956 0,0.824087 -0.191077,1.535289 -0.573233,2.133602 -0.382154,0.587021 -0.92809,1.027287 -1.637805,1.3208 l 2.395291,3.183464 c 0.122835,0.203203 0.184253,0.372533 0.184253,0.508003 0,0.225777 -0.129659,0.440264 -0.38898,0.643466 -0.245671,0.191911 -0.532288,0.287867 -0.859845,0.287867 -0.409454,0 -0.723366,-0.158046 -0.941742,-0.474136 l -2.743322,-3.691466 h -8.905568 v 3.268133 c 0,0.587023 -0.38898,0.880536 -1.166937,0.880536 -0.777959,0 -1.166937,-0.293513 -1.166937,-0.880536 v -4.2164 c 0,-0.632177 0.348033,-0.948264 1.044099,-0.948264 h 9.785892 c 0.859849,0 1.508144,-0.169333 1.944892,-0.508003 0.450397,-0.349956 0.675595,-0.85231 0.675595,-1.507066 0,-0.643467 -0.225198,-1.140177 -0.675595,-1.490134 -0.450398,-0.349954 -1.098696,-0.524933 -1.944892,-0.524933 h -9.86778 c -0.696066,0 -1.044102,-0.31609 -1.044102,-0.948267 0,-0.632177 0.348036,-0.948266 1.044102,-0.948266 z m 21.256092,0.778933 v 4.131733 l 11.935508,-4.826 c 0.313915,-0.135466 0.573236,-0.2032 0.77796,-0.2032 0.313912,0 0.580054,0.101603 0.798427,0.3048 0.218377,0.191911 0.327563,0.42898 0.327563,0.7112 0,0.361244 -0.211551,0.632177 -0.634649,0.8128 l -10.727626,4.19947 10.932353,4.250266 c 0.204724,0.09031 0.36168,0.208844 0.470866,0.355597 0.109185,0.135467 0.16378,0.287867 0.16378,0.4572 0,0.270934 -0.109186,0.508003 -0.327557,0.711203 -0.218377,0.19191 -0.484519,0.287867 -0.798433,0.287867 -0.232021,0 -0.491342,-0.06209 -0.777957,-0.18627 l -12.140235,-4.89373 v 4.199464 c 0,0.587023 -0.395803,0.880536 -1.18741,0.880536 -0.764307,0 -1.146463,-0.293513 -1.146463,-0.880536 v -10.3124 c 0,-0.59831 0.388977,-0.897467 1.166937,-0.897467 0.777957,0 1.166936,0.299157 1.166936,0.897467 z m 19.045074,-0.778933 h 12.283542 c 0.70972,0 1.06457,0.316089 1.06457,0.948266 0,0.632177 -0.35485,0.948267 -1.06457,0.948267 H 96.116073 v 3.048003 h 10.870937 c 0.68241,0 1.02362,0.304797 1.02362,0.914397 0,0.609603 -0.34121,0.914403 -1.02362,0.914403 H 96.116073 v 4.317997 c 0,0.587023 -0.38898,0.880536 -1.166937,0.880536 -0.77796,0 -1.166937,-0.293513 -1.166937,-0.880536 V 16.289219 c 0,-0.632177 0.348033,-0.948266 1.044099,-0.948266 z m 19.720672,0.778933 v 9.177866 h 11.03471 c 0.70972,0 1.06458,0.31609 1.06458,0.94827 0,0.632177 -0.35486,0.948266 -1.06458,0.948266 H 113.2572 c -0.69607,0 -1.04411,-0.316089 -1.04411,-0.948266 V 16.119886 c 0,-0.59831 0.38898,-0.897467 1.16694,-0.897467 0.77796,0 1.16694,0.299157 1.16694,0.897467 z m 25.18684,1.1176 h -3.17325 c -1.73335,0 -3.05041,0.34431 -3.95121,1.032933 -0.88714,0.688623 -1.33071,1.68769 -1.33071,2.997203 0,1.30951 0.44357,2.308577 1.33071,2.9972 0.9008,0.68862 2.21786,1.03293 3.95121,1.03293 h 3.17325 c 1.71969,0 3.02312,-0.34431 3.91026,-1.03293 0.90079,-0.688623 1.35119,-1.68769 1.35119,-2.9972 0,-1.309513 -0.4504,-2.30858 -1.35119,-2.997203 -0.88714,-0.688623 -2.19057,-1.032933 -3.91026,-1.032933 z m -3.25514,-1.896533 h 3.33703 c 2.42941,0 4.29242,0.508 5.58901,1.524 1.2966,1.016 1.9449,2.483556 1.9449,4.402669 0,1.91911 -0.6483,3.386666 -1.9449,4.402666 -1.29659,1.015998 -3.1596,1.524 -5.58901,1.524 h -3.33703 c -2.42941,0 -4.29242,-0.508002 -5.58901,-1.524 -1.2966,-1.016 -1.94489,-2.483556 -1.94489,-4.402666 0,-1.919113 0.64829,-3.386669 1.94489,-4.402669 1.29659,-1.016 3.1596,-1.524 5.58901,-1.524 z m 15.42141,0.474133 4.56538,8.585202 4.97484,-8.585202 c 0.15013,-0.259646 0.31391,-0.423333 0.49134,-0.491064 0.17743,-0.06774 0.38216,-0.101603 0.61418,-0.101603 0.21837,0 0.41627,0.03387 0.59371,0.101603 0.19107,0.06773 0.36168,0.231418 0.51181,0.491064 l 4.97483,8.585202 4.56539,-8.585202 c 0.20472,-0.39511 0.55958,-0.592667 1.06457,-0.592667 0.38215,0 0.68242,0.08467 0.90079,0.254 0.21838,0.158044 0.32756,0.366887 0.32756,0.626534 0,0.135466 -0.0614,0.316089 -0.18425,0.541866 l -5.48665,10.075333 c -0.0819,0.158047 -0.20472,0.299157 -0.3685,0.423334 -0.15014,0.112892 -0.41628,0.169336 -0.79844,0.169336 -0.23202,0 -0.45721,-0.03387 -0.67559,-0.1016 -0.20472,-0.06774 -0.37533,-0.231423 -0.51182,-0.49107 l -4.91341,-8.568263 -4.91342,8.568263 c -0.0955,0.158047 -0.2252,0.299157 -0.38898,0.423334 -0.15013,0.112892 -0.41627,0.169336 -0.79843,0.169336 -0.23202,0 -0.45039,-0.03387 -0.65512,-0.1016 -0.20472,-0.06774 -0.38215,-0.231423 -0.53229,-0.49107 l -5.48665,-10.075333 c -0.10918,-0.19191 -0.16378,-0.372533 -0.16378,-0.541866 0,-0.259647 0.10237,-0.46849 0.30709,-0.626534 0.21838,-0.16933 0.51864,-0.254 0.9008,-0.254 0.51863,0 0.88032,0.197557 1.08504,0.592667 z m 38.36506,-0.203197 6.36696,4.63973 6.34651,-4.63973 c 0.35483,-0.259647 0.75747,-0.38947 1.20787,-0.38947 0.81892,0 1.22836,0.299157 1.22836,0.897467 v 10.3124 c 0,0.587023 -0.38899,0.880536 -1.16695,0.880536 -0.38216,0 -0.67561,-0.07338 -0.88032,-0.220134 -0.20473,-0.158046 -0.30707,-0.378179 -0.30707,-0.660402 v -8.3312 l -5.58904,4.064 c -0.12282,0.07902 -0.26614,0.146759 -0.42992,0.203203 -0.15015,0.05644 -0.28662,0.08466 -0.40944,0.08466 -0.30028,0 -0.58007,-0.09595 -0.83939,-0.287867 l -5.60946,-4.064 v 8.3312 c 0,0.587023 -0.39582,0.880536 -1.18745,0.880536 -0.76427,0 -1.14644,-0.293513 -1.14644,-0.880536 v -10.3124 c 0,-0.59831 0.40265,-0.897467 1.2079,-0.897467 0.47768,0 0.88033,0.129823 1.20788,0.38947 z m 29.50652,0.03386 8.16856,10.075333 c 0.15015,0.169333 0.22521,0.36689 0.22521,0.592666 0,0.270934 -0.11602,0.485424 -0.34803,0.64347 -0.23204,0.158043 -0.52552,0.237066 -0.88035,0.237066 h -10.44099 c -0.69606,0 -1.04409,-0.316089 -1.04409,-0.948266 0,-0.63218 0.34803,-0.94827 1.04409,-0.94827 h 8.33234 l -6.1418,-7.586133 -7.41106,9.177869 c -0.21838,0.282221 -0.52546,0.423334 -0.92128,0.423334 -0.3412,0 -0.63465,-0.08467 -0.88029,-0.254 -0.23201,-0.180623 -0.34803,-0.400757 -0.34803,-0.6604 0,-0.2032 0.0751,-0.38947 0.22516,-0.558803 l 8.25045,-10.193866 c 0.21841,-0.282221 0.58007,-0.423334 1.08505,-0.423334 0.49136,0 0.85305,0.141113 1.08506,0.423334 z m 14.76626,-0.01693 11.34184,8.619067 v -8.128003 c 0,-0.59831 0.39579,-0.897464 1.1874,-0.897464 0.77795,0 1.16694,0.299154 1.16694,0.897464 v 10.312403 c 0,0.587023 -0.38899,0.880533 -1.16694,0.880533 -0.45037,0 -0.80526,-0.1016 -1.06458,-0.3048 l -11.7103,-8.873069 v 8.297336 c 0,0.587023 -0.39579,0.880533 -1.18742,0.880533 -0.7643,0 -1.14644,-0.29351 -1.14644,-0.880533 V 16.119883 c 0,-0.59831 0.42307,-0.897464 1.26929,-0.897464 0.53231,0 0.96903,0.135467 1.31021,0.4064 z m 28.053,0.01693 8.16857,10.075333 c 0.15015,0.169333 0.22518,0.36689 0.22518,0.592666 0,0.270934 -0.11602,0.485424 -0.348,0.64347 -0.23202,0.158043 -0.52547,0.237066 -0.88035,0.237066 H 259.3153 c -0.69604,0 -1.04407,-0.316089 -1.04407,-0.948266 0,-0.63218 0.34803,-0.94827 1.04407,-0.94827 h 8.33237 l -6.1418,-7.586133 -7.41103,9.177869 c -0.21842,0.282221 -0.52547,0.423334 -0.92128,0.423334 -0.34121,0 -0.63466,-0.08467 -0.88032,-0.254 -0.23202,-0.180623 -0.34804,-0.400757 -0.34804,-0.6604 0,-0.2032 0.0751,-0.38947 0.22519,-0.558803 l 8.25045,-10.193866 c 0.21839,-0.282221 0.58004,-0.423334 1.08503,-0.423334 0.49136,0 0.85304,0.141113 1.08505,0.423334 z m 18.08285,-0.3048 h 7.90241 c 0.70972,0 1.06458,0.316089 1.06458,0.948266 0,0.632177 -0.35486,0.948267 -1.06458,0.948267 h -7.8205 c -1.73336,0 -3.05043,0.34431 -3.95121,1.032933 -0.88717,0.688623 -1.33074,1.68769 -1.33074,2.997203 0,1.320797 0.44357,2.32551 1.33074,3.01413 0.90078,0.677336 2.21785,1.016 3.95121,1.016 h 6.63311 v -3.149599 h -6.69454 c -0.68242,0 -1.02362,-0.304798 -1.02362,-0.9144 0,-0.6096 0.3412,-0.9144 1.02362,-0.9144 h 7.98433 c 0.68241,0 1.02359,0.3048 1.02359,0.9144 v 5.029199 c 0,0.282224 -0.10234,0.508003 -0.30705,0.677336 -0.19108,0.169331 -0.45723,0.254 -0.79846,0.254 h -7.92289 c -2.44306,0 -4.31287,-0.502356 -5.60949,-1.507066 -1.28294,-1.016 -1.92442,-2.489203 -1.92442,-4.4196 0,-1.930403 0.64148,-3.397959 1.92442,-4.402669 1.29662,-1.016 3.16643,-1.524 5.60949,-1.524 z m 33.44285,0 h 9.8678 c 1.61052,0 2.83884,0.338666 3.68503,1.016 0.85987,0.666043 1.2898,1.631243 1.2898,2.8956 0,0.824087 -0.19109,1.535289 -0.57325,2.133602 -0.38214,0.587021 -0.92811,1.027287 -1.6378,1.3208 l 2.3953,3.183464 c 0.12285,0.203203 0.18426,0.372533 0.18426,0.508003 0,0.225777 -0.12968,0.440264 -0.38899,0.643466 -0.24567,0.191911 -0.53229,0.287867 -0.85982,0.287867 -0.4095,0 -0.7234,-0.158046 -0.94176,-0.474136 l -2.74333,-3.691466 h -8.90556 v 3.268133 c 0,0.587023 -0.38899,0.880536 -1.16694,0.880536 -0.77796,0 -1.16695,-0.293513 -1.16695,-0.880536 v -4.2164 c 0,-0.632177 0.34804,-0.948264 1.04413,-0.948264 h 9.78588 c 0.85984,0 1.50812,-0.169333 1.9449,-0.508003 0.45037,-0.349956 0.67558,-0.85231 0.67558,-1.507066 0,-0.643467 -0.22521,-1.140177 -0.67558,-1.490134 -0.4504,-0.349954 -1.09871,-0.524933 -1.9449,-0.524933 h -9.8678 c -0.69604,0 -1.04407,-0.31609 -1.04407,-0.948267 0,-0.632177 0.34803,-0.948266 1.04407,-0.948266 z"
       id="text2"
       aria-label="WORKFLOW MANAGER"
       sodipodi:nodetypes="cccssccccscscccscccccssccscscsscscsscscsssssssssssssscscccscscccsssssscsssssssccscsccccscsccssssssssssccssscsssssscsssssssssscscsscscsssssssssssscccssccccscscccscccccssccscsccccsssscscccsccssssscccsssssscccscsccscccsssssccssssscccsssssscccscsccscssssscscsccsssssscsscscssscscccscscccsssssscssssss" />
    <text
       xml:space="preserve"
       style="font-style:normal;font-variant:normal;font-weight:normal;font-stretch:normal;font-size:17.7464px;font-family:'HP Simplified';-inkscape-font-specification:'HP Simplified';text-align:center;writing-mode:lr-tb;direction:ltr;text-anchor:middle;opacity:0.935;fill:#b3b3b3;fill-opacity:1;stroke-width:0.277289"
       x="158.82057"
       y="52.36861"
       id="text3"
       transform="scale(1.0480136,0.9541861)"><tspan
         sodipodi:role="line"
         id="tspan3"
         x="158.82057"
         y="52.36861"
         style="font-style:normal;font-variant:normal;font-weight:normal;font-stretch:normal;font-family:QuadrillionW05-Light;-inkscape-font-specification:QuadrillionW05-Light;fill:#b3b3b3;stroke-width:0.277289">Voice Transformation Program</tspan></text>
  </g>
</svg>
